<svg data-v-423bf9ae="" xmlns="http://www.w3.org/2000/svg" viewBox="0 0 416.9884436021889 60" class="font"><!----><!----><defs data-v-423bf9ae=""><linearGradient data-v-423bf9ae="" gradientTransform="rotate(25)" id="947fbe58-3e7e-429b-9ca7-5a7fdc189a0e" x1="0%" y1="0%" x2="100%" y2="0%"><stop data-v-423bf9ae="" offset="0%" style="stop-color: rgb(144, 24, 93); stop-opacity: 1;"></stop><stop data-v-423bf9ae="" offset="100%" style="stop-color: rgb(174, 175, 166); stop-opacity: 1;"></stop></linearGradient></defs><g data-v-423bf9ae="" id="4bb91819-3db7-4670-92c9-2169c6eb581c" fill="url(#947fbe58-3e7e-429b-9ca7-5a7fdc189a0e)" transform="matrix(7.72200821485535,0,0,7.72200821485535,-4.3243270570883965,-10.038610072679333)"><path d="M0.56 1.44L0.56 8.86L2.45 8.86L2.45 8.27L2.45 8.27Q2.77 8.61 3.19 8.81L3.19 8.81L3.19 8.81Q3.61 9.00 4.09 9.00L4.09 9.00L4.09 9.00Q4.84 9.00 5.38 8.64L5.38 8.64L5.38 8.64Q5.92 8.27 6.21 7.64L6.21 7.64L6.21 7.64Q6.50 7.00 6.50 6.17L6.50 6.17L6.50 6.17Q6.50 5.35 6.21 4.71L6.21 4.71L6.21 4.71Q5.92 4.07 5.38 3.70L5.38 3.70L5.38 3.70Q4.84 3.33 4.09 3.33L4.09 3.33L4.09 3.33Q3.14 3.33 2.45 4.02L2.45 4.02L2.45 1.44L0.56 1.44ZM2.45 7.00L2.45 7.00L2.45 5.35L2.45 5.35Q2.88 4.80 3.53 4.80L3.53 4.80L3.53 4.80Q4.03 4.80 4.32 5.19L4.32 5.19L4.32 5.19Q4.61 5.57 4.61 6.17L4.61 6.17L4.61 6.17Q4.61 6.78 4.32 7.15L4.32 7.15L4.32 7.15Q4.03 7.53 3.53 7.53L3.53 7.53L3.53 7.53Q2.87 7.53 2.45 7.00ZM7.55 1.44L7.55 8.86L9.44 8.86L9.44 1.44L7.55 1.44ZM13.62 5.89L13.62 6.09L13.62 6.09Q13.36 5.94 12.99 5.82L12.99 5.82L12.99 5.82Q12.63 5.71 12.19 5.71L12.19 5.71L12.19 5.71Q11.38 5.71 10.83 6.10L10.83 6.10L10.83 6.10Q10.28 6.48 10.28 7.29L10.28 7.29L10.28 7.29Q10.28 7.98 10.54 8.34L10.54 8.34L10.54 8.34Q10.79 8.71 11.19 8.86L11.19 8.86L11.19 8.86Q11.59 9.00 11.98 9.00L11.98 9.00L11.98 9.00Q12.53 9.00 12.94 8.80L12.94 8.80L12.94 8.80Q13.36 8.60 13.62 8.30L13.62 8.30L13.62 8.86L15.51 8.86L15.51 5.47L15.51 5.47Q15.51 4.45 14.97 3.89L14.97 3.89L14.97 3.89Q14.43 3.33 13.52 3.33L13.52 3.33L13.52 3.33Q12.71 3.33 11.98 3.65L11.98 3.65L11.98 3.65Q11.26 3.96 10.63 4.35L10.63 4.35L11.33 5.33L11.33 5.33Q11.75 5.04 12.19 4.92L12.19 4.92L12.19 4.92Q12.63 4.80 12.82 4.80L12.82 4.80L12.82 4.80Q13.33 4.80 13.48 5.05L13.48 5.05L13.48 5.05Q13.62 5.29 13.62 5.89L13.62 5.89ZM13.62 7.00L13.62 7.00L13.62 7.56L13.62 7.56Q13.48 7.71 13.28 7.83L13.28 7.83L13.28 7.83Q13.08 7.94 12.82 7.94L12.82 7.94L12.82 7.94Q12.53 7.94 12.42 7.72L12.42 7.72L12.42 7.72Q12.31 7.50 12.31 7.31L12.31 7.31L12.31 7.31Q12.31 7.11 12.45 6.93L12.45 6.93L12.45 6.93Q12.60 6.75 12.89 6.75L12.89 6.75L12.89 6.75Q13.20 6.75 13.36 6.83L13.36 6.83L13.36 6.83Q13.52 6.92 13.62 7.00ZM16.56 6.17L16.56 6.17L16.56 6.17Q16.56 7.00 16.96 7.64L16.96 7.64L16.96 7.64Q17.36 8.27 18.03 8.64L18.03 8.64L18.03 8.64Q18.70 9.00 19.53 9.00L19.53 9.00L19.53 9.00Q19.94 9.00 20.38 8.88L20.38 8.88L20.38 8.88Q20.83 8.76 21.10 8.51L21.10 8.51L20.54 7.07L20.54 7.07Q20.41 7.22 20.16 7.34L20.16 7.34L20.16 7.34Q19.91 7.46 19.67 7.46L19.67 7.46L19.67 7.46Q19.07 7.46 18.76 7.07L18.76 7.07L18.76 7.07Q18.45 6.68 18.45 6.17L18.45 6.17L18.45 6.17Q18.45 5.67 18.76 5.27L18.76 5.27L18.76 5.27Q19.07 4.87 19.67 4.87L19.67 4.87L19.67 4.87Q19.91 4.87 20.16 4.99L20.16 4.99L20.16 4.99Q20.41 5.11 20.54 5.26L20.54 5.26L21.10 3.82L21.10 3.82Q20.83 3.57 20.38 3.45L20.38 3.45L20.38 3.45Q19.94 3.33 19.53 3.33L19.53 3.33L19.53 3.33Q18.70 3.33 18.03 3.68L18.03 3.68L18.03 3.68Q17.36 4.02 16.96 4.66L16.96 4.66L16.96 4.66Q16.56 5.29 16.56 6.17ZM22.29 1.44L22.29 8.86L24.18 8.86L24.18 6.17L26.21 8.86L28.52 8.86L26.14 5.71L28.38 3.47L26.07 3.47L24.18 5.36L24.18 1.44L22.29 1.44ZM29.41 8.86L31.30 8.86L31.30 4.87L32.51 4.87L32.51 3.47L31.33 3.47L31.33 3.47Q31.39 3.09 31.56 2.97L31.56 2.97L31.56 2.97Q31.72 2.84 31.96 2.84L31.96 2.84L31.96 2.84Q32.16 2.84 32.46 3.00L32.46 3.00L32.46 3.00Q32.76 3.16 33.18 3.57L33.18 3.57L33.74 2.17L33.74 2.17Q33.39 1.85 33.10 1.65L33.10 1.65L33.10 1.65Q32.82 1.46 32.49 1.38L32.49 1.38L32.49 1.38Q32.16 1.30 31.68 1.30L31.68 1.30L31.68 1.30Q31.15 1.30 30.63 1.55L30.63 1.55L30.63 1.55Q30.10 1.81 29.76 2.28L29.76 2.28L29.76 2.28Q29.41 2.74 29.41 3.43L29.41 3.43L29.41 3.47L28.80 3.47L28.80 4.87L29.41 4.87L29.41 8.86ZM37.37 5.75L38.42 4.35L38.42 4.35Q38.28 4.17 38.09 3.95L38.09 3.95L38.09 3.95Q37.91 3.72 37.65 3.56L37.65 3.56L37.65 3.56Q37.38 3.40 36.99 3.40L36.99 3.40L36.99 3.40Q36.60 3.40 36.19 3.71L36.19 3.71L36.19 3.71Q35.78 4.02 35.48 4.52L35.48 4.52L35.35 3.47L33.74 3.47L33.74 8.86L35.63 8.86L35.63 5.50L35.63 5.50Q35.81 5.32 36.02 5.20L36.02 5.20L36.02 5.20Q36.23 5.08 36.43 5.08L36.43 5.08L36.43 5.08Q36.82 5.08 36.99 5.27L36.99 5.27L36.99 5.27Q37.16 5.46 37.37 5.75L37.37 5.75ZM40.73 6.17L40.73 6.17L40.73 6.17Q40.73 5.67 40.98 5.31L40.98 5.31L40.98 5.31Q41.23 4.94 41.73 4.94L41.73 4.94L41.73 4.94Q42.24 4.94 42.49 5.31L42.49 5.31L42.49 5.31Q42.74 5.67 42.74 6.17L42.74 6.17L42.74 6.17Q42.74 6.68 42.49 7.04L42.49 7.04L42.49 7.04Q42.24 7.39 41.73 7.39L41.73 7.39L41.73 7.39Q41.23 7.39 40.98 7.04L40.98 7.04L40.98 7.04Q40.73 6.68 40.73 6.17ZM38.91 6.17L38.91 6.17L38.91 6.17Q38.91 7.00 39.27 7.64L39.27 7.64L39.27 7.64Q39.63 8.27 40.27 8.64L40.27 8.64L40.27 8.64Q40.91 9.00 41.73 9.00L41.73 9.00L41.73 9.00Q42.56 9.00 43.20 8.67L43.20 8.67L43.20 8.67Q43.83 8.33 44.20 7.69L44.20 7.69L44.20 7.69Q44.56 7.06 44.56 6.17L44.56 6.17L44.56 6.17Q44.56 5.29 44.20 4.66L44.20 4.66L44.20 4.66Q43.83 4.02 43.20 3.68L43.20 3.68L43.20 3.68Q42.56 3.33 41.73 3.33L41.73 3.33L41.73 3.33Q40.91 3.33 40.27 3.68L40.27 3.68L40.27 3.68Q39.63 4.02 39.27 4.66L39.27 4.66L39.27 4.66Q38.91 5.29 38.91 6.17ZM48.05 7.29L48.05 7.29L48.05 7.29Q48.05 7.52 47.87 7.60L47.87 7.60L47.87 7.60Q47.68 7.67 47.39 7.67L47.39 7.67L47.39 7.67Q47.21 7.67 46.76 7.50L46.76 7.50L46.76 7.50Q46.31 7.34 45.89 6.94L45.89 6.94L45.33 8.20L45.33 8.20Q45.86 8.69 46.42 8.88L46.42 8.88L46.42 8.88Q46.97 9.07 47.67 9.07L47.67 9.07L47.67 9.07Q48.22 9.07 48.73 8.88L48.73 8.88L48.73 8.88Q49.25 8.68 49.59 8.26L49.59 8.26L49.59 8.26Q49.94 7.84 49.94 7.15L49.94 7.15L49.94 7.15Q49.94 6.72 49.70 6.43L49.70 6.43L49.70 6.43Q49.46 6.15 49.11 5.96L49.11 5.96L49.11 5.96Q48.76 5.77 48.41 5.62L48.41 5.62L48.41 5.62Q48.06 5.47 47.82 5.33L47.82 5.33L47.82 5.33Q47.59 5.18 47.59 4.97L47.59 4.97L47.59 4.97Q47.59 4.66 47.98 4.66L47.98 4.66L47.98 4.66Q48.16 4.66 48.46 4.82L48.46 4.82L48.46 4.82Q48.76 4.98 49.18 5.39L49.18 5.39L49.74 4.13L49.74 4.13Q49.22 3.64 48.72 3.45L48.72 3.45L48.72 3.45Q48.22 3.26 47.82 3.26L47.82 3.26L47.82 3.26Q47.29 3.26 46.80 3.41L46.80 3.41L46.80 3.41Q46.31 3.56 46.00 3.92L46.00 3.92L46.00 3.92Q45.70 4.28 45.70 4.97L45.70 4.97L45.70 4.97Q45.70 5.47 45.93 5.80L45.93 5.80L45.93 5.80Q46.17 6.12 46.52 6.31L46.52 6.31L46.52 6.31Q46.87 6.51 47.22 6.66L47.22 6.66L47.22 6.66Q47.57 6.80 47.81 6.94L47.81 6.94L47.81 6.94Q48.05 7.08 48.05 7.29ZM50.57 3.47L50.57 4.87L51.55 4.87L51.55 8.86L53.44 8.86L53.44 4.87L54.56 4.87L54.56 3.47L53.44 3.47L53.44 1.72L51.55 2.56L51.55 3.47L50.57 3.47Z"></path></g><!----><!----></svg>